HIERARCHY
ROOT Hips
{
	OFFSET -22.570961 -27.246878 87.035881
	CHANNELS 6 Xposition Yposition Zposition Zrotation Yrotation Xrotation
	JOINT Spine
	{
		OFFSET 0.000000 2.080109 8.814247
		CHANNELS 6 Xposition Yposition Zposition Zrotation Yrotation Xrotation
		JOINT Spine1
		{
			OFFSET 0.000000 0.000000 8.844139
			CHANNELS 6 Xposition Yposition Zposition Zrotation Yrotation Xrotation
			JOINT Spine2
			{
				OFFSET 0.000000 0.000002 11.682266
				CHANNELS 6 Xposition Yposition Zposition Zrotation Yrotation Xrotation
				JOINT Spine3
				{
					OFFSET 0.000000 0.000000 11.746696
					CHANNELS 6 Xposition Yposition Zposition Zrotation Yrotation Xrotation
					JOINT Neck
					{
						OFFSET 0.000000 0.000002 17.658264
						CHANNELS 6 Xposition Yposition Zposition Zrotation Yrotation Xrotation
						JOINT Neck1
						{
							OFFSET 0.000000 0.000000 5.101517
							CHANNELS 6 Xposition Yposition Zposition Zrotation Yrotation Xrotation
							JOINT Head
							{
								OFFSET 0.000000 0.000000 5.101517
								CHANNELS 6 Xposition Yposition Zposition Zrotation Yrotation Xrotation
								JOINT HeadEnd
								{
									OFFSET 0.000000 0.000002 11.655090
									CHANNELS 6 Xposition Yposition Zposition Zrotation Yrotation Xrotation
									End Site
									{
										OFFSET 0.000000 0.000000 0.100006
									}
								}
							}
						}
					}
					JOINT RightShoulder
					{
						OFFSET -2.625389 0.000002 11.175217
						CHANNELS 6 Xposition Yposition Zposition Zrotation Yrotation Xrotation
						JOINT RightArm
						{
							OFFSET 0.000000 0.000000 10.434708
							CHANNELS 6 Xposition Yposition Zposition Zrotation Yrotation Xrotation
							JOINT RightForeArm
							{
								OFFSET 0.000000 0.000002 29.628418
								CHANNELS 6 Xposition Yposition Zposition Zrotation Yrotation Xrotation
								JOINT RightHand
								{
									OFFSET 0.000000 0.000002 22.857605
									CHANNELS 6 Xposition Yposition Zposition Zrotation Yrotation Xrotation
									JOINT RightHandThumb1
									{
										OFFSET -2.867323 -2.944292 3.959564
										CHANNELS 6 Xposition Yposition Zposition Zrotation Yrotation Xrotation
										JOINT RightHandThumb2
										{
											OFFSET 0.000000 0.000000 3.350403
											CHANNELS 6 Xposition Yposition Zposition Zrotation Yrotation Xrotation
											JOINT RightHandThumb3
											{
												OFFSET 0.000000 0.000000 3.756516
												CHANNELS 6 Xposition Yposition Zposition Zrotation Yrotation Xrotation
												JOINT RightHandThumb4
												{
													OFFSET 0.000000 0.000002 3.147339
													CHANNELS 6 Xposition Yposition Zposition Zrotation Yrotation Xrotation
													End Site
													{
														OFFSET 0.000000 0.000000 0.100006
													}
												}
											}
										}
									}
									JOINT RightHandIndex1
									{
										OFFSET -0.086752 -2.345280 10.030899
										CHANNELS 6 Xposition Yposition Zposition Zrotation Yrotation Xrotation
										JOINT RightHandIndex2
										{
											OFFSET 0.000000 0.000002 4.061096
											CHANNELS 6 Xposition Yposition Zposition Zrotation Yrotation Xrotation
											JOINT RightHandIndex3
											{
												OFFSET 0.000000 0.000000 3.248871
												CHANNELS 6 Xposition Yposition Zposition Zrotation Yrotation Xrotation
												JOINT RightHandIndex4
												{
													OFFSET 0.000000 0.000000 2.639709
													CHANNELS 6 Xposition Yposition Zposition Zrotation Yrotation Xrotation
													End Site
													{
														OFFSET 0.000000 0.000000 0.100006
													}
												}
											}
										}
									}
									JOINT RightHandMiddle1
									{
										OFFSET 0.104101 -0.006767 9.502945
										CHANNELS 6 Xposition Yposition Zposition Zrotation Yrotation Xrotation
										JOINT RightHandMiddle2
										{
											OFFSET 0.000000 0.000002 4.568726
											CHANNELS 6 Xposition Yposition Zposition Zrotation Yrotation Xrotation
											JOINT RightHandMiddle3
											{
												OFFSET 0.000000 0.000000 3.654984
												CHANNELS 6 Xposition Yposition Zposition Zrotation Yrotation Xrotation
												JOINT RightHandMiddle4
												{
													OFFSET 0.000000 0.000000 2.741241
													CHANNELS 6 Xposition Yposition Zposition Zrotation Yrotation Xrotation
													End Site
													{
														OFFSET 0.000000 0.000000 0.100006
													}
												}
											}
										}
									}
									JOINT RightHandRing1
									{
										OFFSET 0.086752 2.267443 8.921707
										CHANNELS 6 Xposition Yposition Zposition Zrotation Yrotation Xrotation
										JOINT RightHandRing2
										{
											OFFSET 0.000000 0.000002 4.061096
											CHANNELS 6 Xposition Yposition Zposition Zrotation Yrotation Xrotation
											JOINT RightHandRing3
											{
												OFFSET 0.000000 0.000000 3.654984
												CHANNELS 6 Xposition Yposition Zposition Zrotation Yrotation Xrotation
												JOINT RightHandRing4
												{
													OFFSET 0.000000 0.000000 2.741241
													CHANNELS 6 Xposition Yposition Zposition Zrotation Yrotation Xrotation
													End Site
													{
														OFFSET 0.000000 0.000000 0.100006
													}
												}
											}
										}
									}
									JOINT RightHandPinky1
									{
										OFFSET -0.173504 4.467199 7.976990
										CHANNELS 6 Xposition Yposition Zposition Zrotation Yrotation Xrotation
										JOINT RightHandPinky2
										{
											OFFSET 0.000000 0.000000 3.350403
											CHANNELS 6 Xposition Yposition Zposition Zrotation Yrotation Xrotation
											JOINT RightHandPinky3
											{
												OFFSET 0.000000 0.000002 2.842758
												CHANNELS 6 Xposition Yposition Zposition Zrotation Yrotation Xrotation
												JOINT RightHandPinky4
												{
													OFFSET 0.000000 0.000000 2.639709
													CHANNELS 6 Xposition Yposition Zposition Zrotation Yrotation Xrotation
													End Site
													{
														OFFSET 0.000000 0.000000 0.100006
													}
												}
											}
										}
									}
									JOINT RightForeArmEnd
									{
										OFFSET 0.000000 0.000000 0.000000
										CHANNELS 6 Xposition Yposition Zposition Zrotation Yrotation Xrotation
										End Site
										{
											OFFSET 0.000000 0.000000 0.100006
										}
									}
								}
								JOINT RightArmEnd
								{
									OFFSET 0.000000 0.000000 0.000000
									CHANNELS 6 Xposition Yposition Zposition Zrotation Yrotation Xrotation
									End Site
									{
										OFFSET 0.000000 0.000000 0.100006
									}
								}
							}
						}
					}
					JOINT LeftShoulder
					{
						OFFSET 2.625389 0.000002 11.175217
						CHANNELS 6 Xposition Yposition Zposition Zrotation Yrotation Xrotation
						JOINT LeftArm
						{
							OFFSET 0.000000 0.000000 10.813629
							CHANNELS 6 Xposition Yposition Zposition Zrotation Yrotation Xrotation
							JOINT LeftForeArm
							{
								OFFSET 0.000000 0.000002 28.724777
								CHANNELS 6 Xposition Yposition Zposition Zrotation Yrotation Xrotation
								JOINT LeftHand
								{
									OFFSET 0.644384 0.328873 25.716171
									CHANNELS 6 Xposition Yposition Zposition Zrotation Yrotation Xrotation
									JOINT LeftHandThumb1
									{
										OFFSET 2.867323 -2.944290 3.959564
										CHANNELS 6 Xposition Yposition Zposition Zrotation Yrotation Xrotation
										JOINT LeftHandThumb2
										{
											OFFSET 0.000000 0.000000 3.350403
											CHANNELS 6 Xposition Yposition Zposition Zrotation Yrotation Xrotation
											JOINT LeftHandThumb3
											{
												OFFSET 0.000000 0.000002 3.756516
												CHANNELS 6 Xposition Yposition Zposition Zrotation Yrotation Xrotation
												JOINT LeftHandThumb4
												{
													OFFSET 0.000000 0.000000 3.100006
													CHANNELS 6 Xposition Yposition Zposition Zrotation Yrotation Xrotation
													End Site
													{
														OFFSET 0.000000 0.000000 0.100006
													}
												}
											}
										}
									}
									JOINT LeftHandIndex1
									{
										OFFSET 0.086752 -2.345280 10.030899
										CHANNELS 6 Xposition Yposition Zposition Zrotation Yrotation Xrotation
										JOINT LeftHandIndex2
										{
											OFFSET 0.000000 0.000002 4.061096
											CHANNELS 6 Xposition Yposition Zposition Zrotation Yrotation Xrotation
											JOINT LeftHandIndex3
											{
												OFFSET 0.000000 0.000000 3.248871
												CHANNELS 6 Xposition Yposition Zposition Zrotation Yrotation Xrotation
												JOINT LeftHandIndex4
												{
													OFFSET 0.000000 0.000000 2.639709
													CHANNELS 6 Xposition Yposition Zposition Zrotation Yrotation Xrotation
													End Site
													{
														OFFSET 0.000000 0.000000 0.100006
													}
												}
											}
										}
									}
									JOINT LeftHandMiddle1
									{
										OFFSET -0.104101 -0.006767 9.502945
										CHANNELS 6 Xposition Yposition Zposition Zrotation Yrotation Xrotation
										JOINT LeftHandMiddle2
										{
											OFFSET 0.000000 0.000002 4.568726
											CHANNELS 6 Xposition Yposition Zposition Zrotation Yrotation Xrotation
											JOINT LeftHandMiddle3
											{
												OFFSET 0.000000 0.000000 3.654984
												CHANNELS 6 Xposition Yposition Zposition Zrotation Yrotation Xrotation
												JOINT LeftHandMiddle4
												{
													OFFSET 0.000000 0.000000 2.741241
													CHANNELS 6 Xposition Yposition Zposition Zrotation Yrotation Xrotation
													End Site
													{
														OFFSET 0.000000 0.000000 0.100006
													}
												}
											}
										}
									}
									JOINT LeftHandRing1
									{
										OFFSET -0.086752 2.267443 8.921707
										CHANNELS 6 Xposition Yposition Zposition Zrotation Yrotation Xrotation
										JOINT LeftHandRing2
										{
											OFFSET 0.000000 0.000002 4.061096
											CHANNELS 6 Xposition Yposition Zposition Zrotation Yrotation Xrotation
											JOINT LeftHandRing3
											{
												OFFSET 0.000000 0.000000 3.654984
												CHANNELS 6 Xposition Yposition Zposition Zrotation Yrotation Xrotation
												JOINT LeftHandRing4
												{
													OFFSET 0.000000 0.000000 2.741241
													CHANNELS 6 Xposition Yposition Zposition Zrotation Yrotation Xrotation
													End Site
													{
														OFFSET 0.000000 0.000000 0.100006
													}
												}
											}
										}
									}
									JOINT LeftHandPinky1
									{
										OFFSET 0.173504 4.467199 7.976990
										CHANNELS 6 Xposition Yposition Zposition Zrotation Yrotation Xrotation
										JOINT LeftHandPinky2
										{
											OFFSET 0.000000 0.000002 3.350403
											CHANNELS 6 Xposition Yposition Zposition Zrotation Yrotation Xrotation
											JOINT LeftHandPinky3
											{
												OFFSET 0.000000 0.000000 2.842758
												CHANNELS 6 Xposition Yposition Zposition Zrotation Yrotation Xrotation
												JOINT LeftHandPinky4
												{
													OFFSET 0.000000 0.000000 2.639709
													CHANNELS 6 Xposition Yposition Zposition Zrotation Yrotation Xrotation
													End Site
													{
														OFFSET 0.000000 0.000000 0.100006
													}
												}
											}
										}
									}
									JOINT LeftForeArmEnd
									{
										OFFSET 0.000000 0.000000 0.000000
										CHANNELS 6 Xposition Yposition Zposition Zrotation Yrotation Xrotation
										End Site
										{
											OFFSET 0.000000 0.000000 0.100006
										}
									}
								}
								JOINT LeftArmEnd
								{
									OFFSET 0.000000 0.000000 0.000000
									CHANNELS 6 Xposition Yposition Zposition Zrotation Yrotation Xrotation
									End Site
									{
										OFFSET 0.000000 0.000000 0.100006
									}
								}
							}
						}
					}
				}
			}
		}
	}
	JOINT RightUpLeg
	{
		OFFSET -11.289944 0.000000 0.000000
		CHANNELS 6 Xposition Yposition Zposition Zrotation Yrotation Xrotation
		JOINT RightLeg
		{
			OFFSET 0.000000 -0.000002 -38.200321
			CHANNELS 6 Xposition Yposition Zposition Zrotation Yrotation Xrotation
			JOINT RightFoot
			{
				OFFSET 0.000000 -0.000004 -39.900856
				CHANNELS 6 Xposition Yposition Zposition Zrotation Yrotation Xrotation
				JOINT RightToeBase
				{
					OFFSET 0.000000 -15.261639 0.000001
					CHANNELS 6 Xposition Yposition Zposition Zrotation Yrotation Xrotation
					JOINT RightToeBaseEnd
					{
						OFFSET 0.000000 -7.370708 0.000001
						CHANNELS 6 Xposition Yposition Zposition Zrotation Yrotation Xrotation
						End Site
						{
							OFFSET 0.000000 0.000000 0.100000
						}
					}
				}
				JOINT RightLegEnd
				{
					OFFSET 0.000000 0.000000 0.000000
					CHANNELS 6 Xposition Yposition Zposition Zrotation Yrotation Xrotation
					End Site
					{
						OFFSET 0.000000 0.000000 0.100000
					}
				}
			}
			JOINT RightUpLegEnd
			{
				OFFSET 0.000000 0.000000 0.000000
				CHANNELS 6 Xposition Yposition Zposition Zrotation Yrotation Xrotation
				End Site
				{
					OFFSET 0.000000 0.000000 0.099998
				}
			}
		}
	}
	JOINT LeftUpLeg
	{
		OFFSET 11.315661 0.000000 0.000000
		CHANNELS 6 Xposition Yposition Zposition Zrotation Yrotation Xrotation
		JOINT LeftLeg
		{
			OFFSET 0.000000 -0.000002 -38.200321
			CHANNELS 6 Xposition Yposition Zposition Zrotation Yrotation Xrotation
			JOINT LeftFoot
			{
				OFFSET 0.000000 -0.000004 -39.900856
				CHANNELS 6 Xposition Yposition Zposition Zrotation Yrotation Xrotation
				JOINT LeftToeBase
				{
					OFFSET 0.000000 -15.261639 0.000001
					CHANNELS 6 Xposition Yposition Zposition Zrotation Yrotation Xrotation
					JOINT LeftToeBaseEnd
					{
						OFFSET 0.000000 -7.539997 0.000001
						CHANNELS 6 Xposition Yposition Zposition Zrotation Yrotation Xrotation
						End Site
						{
							OFFSET 0.000000 0.000000 0.100000
						}
					}
				}
				JOINT LeftLegEnd
				{
					OFFSET 0.000000 0.000000 0.000000
					CHANNELS 6 Xposition Yposition Zposition Zrotation Yrotation Xrotation
					End Site
					{
						OFFSET 0.000000 0.000000 0.100000
					}
				}
			}
			JOINT LeftUpLegEnd
			{
				OFFSET 0.000000 0.000000 0.000000
				CHANNELS 6 Xposition Yposition Zposition Zrotation Yrotation Xrotation
				End Site
				{
					OFFSET 0.000000 0.000000 0.099998
				}
			}
		}
	}
}
MOTION
Frames: 2
Frame Time: 0.016667
-1.191961 -7.337255 86.477837 22.801716 4.249941 -10.386492 -0.000002 2.080106 8.814260 -0.708378 -3.947554 6.656225 0.000000 0.000002 8.844135 0.047736 -3.424415 4.395547 0.000000 -0.000001 11.682288 7.515828 3.973354 8.033698 -0.000000 0.000002 11.746679 3.298431 4.657793 -0.104112 -0.000006 0.000004 17.658279 -5.345496 -11.111381 6.596744 0.000002 -0.000000 5.101510 -6.439515 5.058671 -11.744550 0.000001 -0.000001 5.101526 2.769007 -0.751927 -23.074218 0.000002 -0.000003 11.655091 -0.000001 0.000001 -0.000001 -2.625395 0.000005 11.175224 18.684006 -78.429792 -0.540311 0.000023 0.000004 10.434699 6.350617 -2.387416 48.209480 -0.000007 -0.000001 29.628428 19.864021 1.080788 113.642422 -0.000003 -0.000004 22.857582 7.590039 11.698127 6.727265 -2.867336 -2.944291 3.959562 32.008145 -15.052140 54.995416 0.000006 0.000001 3.350390 -7.829731 6.054743 -14.605026 0.000010 0.000005 3.756508 -5.270498 4.419867 -10.045181 -0.000003 -0.000002 3.147352 -0.000001 -0.000003 -0.000000 -0.086763 -2.345285 10.030931 -8.028437 3.322745 14.194801 0.000009 -0.000004 4.061094 0.509707 0.044196 -0.003328 0.000001 0.000010 3.248871 0.007804 -0.024606 -0.003515 0.000017 0.000009 2.639694 0.000001 -0.000001 -0.000000 0.104100 -0.006770 9.502975 -3.401735 0.848894 12.220775 -0.000011 -0.000003 4.568711 0.508359 -0.000142 -0.000005 -0.000017 -0.000001 3.654978 0.005614 -0.000008 0.000005 -0.000004 0.000003 2.741240 0.000001 -0.000000 0.000003 0.086743 2.267436 8.921758 4.198532 -2.114142 9.468906 0.000005 0.000006 4.061113 -0.999968 -0.969405 -0.059372 0.000000 0.000001 3.655005 0.000039 -0.970961 -0.059332 0.000001 0.000005 2.741256 0.000001 -0.000000 0.000001 -0.173513 4.467206 7.976994 12.538155 -3.664347 5.514029 -0.000007 0.000003 3.350427 -1.993688 -1.628669 -0.316509 -0.000014 0.000003 2.842765 0.004044 -1.627263 -0.316514 -0.000031 -0.000000 2.639724 -0.000001 -0.000001 0.000003 -0.000005 0.000005 -0.000018 0.000001 -0.000001 0.000004 0.000008 -0.000008 0.000014 0.000000 -0.000000 0.000003 2.625386 0.000003 11.175221 -18.799170 77.375655 -1.735999 -0.000003 -0.000003 10.813629 -8.775967 23.665227 35.078052 0.000015 0.000033 28.724775 -31.317790 4.919561 88.373680 0.644391 0.328876 25.716173 -19.340389 -2.684509 8.062398 2.867335 -2.944281 3.959562 -32.088901 14.722012 55.537358 0.000004 -0.000007 3.350403 7.118243 -5.629057 -13.353133 -0.000009 0.000004 3.756571 4.801566 -4.087769 -9.191191 0.000001 -0.000004 3.100021 0.000000 0.000000 0.000000 0.086749 -2.345276 10.030931 -8.192984 2.441831 6.768148 -0.000007 0.000002 4.061135 0.503063 0.997581 -0.140150 -0.000004 -0.000005 3.248910 -0.002268 0.997605 -0.140231 0.000003 0.000004 2.639694 -0.000000 -0.000001 -0.000001 -0.104100 -0.006767 9.502954 -3.082026 2.635174 5.553461 -0.000004 -0.000002 4.568731 0.498746 1.626798 -0.085283 0.000012 0.000001 3.654978 0.000789 1.626803 -0.085219 0.000008 -0.000001 2.741241 0.000001 -0.000000 -0.000000 -0.086752 2.267442 8.921703 5.108888 3.102252 5.360032 0.000004 0.000006 4.061110 -0.994048 2.491684 0.152644 0.000001 -0.000008 3.655007 0.001306 2.492266 0.152461 0.000008 -0.000013 2.741241 0.000001 -0.000000 0.000002 0.173504 4.467194 7.977007 13.657411 2.765420 5.183048 -0.000000 0.000015 3.350412 -1.990186 2.692878 0.523715 0.000000 -0.000009 2.842773 0.012185 2.692880 0.523830 0.000010 0.000006 2.639694 -0.000004 -0.000001 -0.000001 0.000002 -0.000002 -0.000015 0.000000 0.000001 -0.000001 -0.000001 0.000001 0.000016 0.000001 0.000001 -0.000001 -11.289942 -0.000004 -0.000005 -20.969956 3.653950 11.336144 -0.000001 0.000000 -38.200336 -1.333445 0.380131 15.908617 -0.000001 -0.000009 -39.900860 -23.670608 -3.203765 16.921167 -0.000001 -15.261641 0.000003 -0.630149 0.543508 -29.993061 0.000001 -7.370708 0.000002 -0.000000 0.000000 -0.000000 -0.000000 -0.000000 0.000001 0.000000 -0.000000 0.000001 -0.000003 -0.000008 0.000003 0.000000 -0.000000 0.000002 11.315660 0.000000 -0.000002 -8.679469 -8.525199 -2.825652 0.000002 -0.000009 -38.200321 0.985304 -0.494080 26.628855 -0.000001 -0.000004 -39.900856 -7.455809 -1.901033 12.428992 -0.000002 -15.261636 0.000000 0.410111 -0.045811 -29.391714 0.000000 -7.540001 0.000000 0.000001 0.000000 -0.000000 -0.000000 0.000002 -0.000000 0.000000 0.000000 0.000000 -0.000000 0.000000 -0.000004 0.000000 -0.000000 -0.000000 
-0.595028 -7.267345 86.570526 22.366221 4.337657 -9.955206 -0.000002 2.080104 8.814245 -0.676479 -3.859937 6.644740 0.000000 0.000001 8.844158 0.111179 -3.110470 4.298901 0.000000 0.000002 11.682261 7.102276 3.571380 7.478434 0.000002 -0.000000 11.746701 3.167242 4.468282 -0.219491 -0.000002 0.000001 17.658268 -4.836563 -10.690895 6.428137 0.000002 -0.000001 5.101529 -6.044807 4.934624 -11.818611 -0.000001 -0.000003 5.101517 2.849268 -0.846905 -23.094126 -0.000001 -0.000005 11.655091 -0.000001 0.000001 -0.000002 -2.625405 0.000004 11.175217 18.889382 -77.646676 -0.531547 -0.000010 0.000007 10.434713 7.570855 -2.137076 48.194979 0.000002 0.000011 29.628424 20.056410 1.117776 113.568028 -0.000024 0.000008 22.857569 11.145791 12.566895 7.874663 -2.867313 -2.944284 3.959562 32.008131 -15.052142 54.995450 0.000016 -0.000007 3.350410 -7.829732 6.054739 -14.605075 -0.000004 0.000006 3.756516 -5.270500 4.419872 -10.045159 -0.000007 0.000004 3.147355 -0.000001 0.000000 -0.000001 -0.086745 -2.345287 10.030918 -8.045760 3.259182 13.460827 -0.000006 0.000002 4.061115 0.511069 -0.000065 -0.003563 0.000032 -0.000001 3.248867 0.008799 -0.000002 -0.003331 0.000011 0.000010 2.639709 -0.000002 0.000001 0.000000 0.104092 -0.006771 9.502947 -3.416993 0.768898 11.667105 -0.000016 -0.000004 4.568707 0.511291 -0.000117 -0.000005 -0.000005 -0.000005 3.654984 0.007003 0.000001 0.000001 -0.000009 0.000004 2.741241 0.000001 -0.000001 0.000001 0.086748 2.267434 8.921751 4.169204 -2.280863 9.059088 -0.000007 0.000005 4.061115 -1.000137 -1.110213 -0.067950 -0.000000 -0.000006 3.654993 -0.000197 -1.111255 -0.067962 0.000006 -0.000001 2.741242 0.000001 -0.000000 -0.000002 -0.173500 4.467199 7.976989 12.493655 -3.903849 5.158639 -0.000003 0.000004 3.350429 -1.994392 -1.845947 -0.358945 -0.000003 0.000004 2.842754 0.003684 -1.845959 -0.358874 0.000002 -0.000003 2.639724 -0.000000 -0.000001 0.000000 0.000003 0.000001 -0.000030 -0.000001 0.000002 -0.000000 -0.000024 0.000005 -0.000000 0.000001 -0.000001 -0.000000 2.625382 0.000003 11.175232 -19.386281 76.305924 -1.727793 0.000010 -0.000001 10.813641 -10.000845 20.720687 35.129726 0.000015 0.000002 28.724783 -31.422869 4.979553 87.437022 0.644381 0.328869 25.716158 -21.261307 -1.258343 6.953053 2.867333 -2.944284 3.959584 -32.088922 14.721996 55.537177 0.000001 -0.000014 3.350377 7.118206 -5.629085 -13.352868 0.000001 0.000004 3.756520 4.801574 -4.087735 -9.191255 0.000004 0.000000 3.100006 0.000000 -0.000001 -0.000000 0.086757 -2.345273 10.030906 -8.227873 2.243783 6.899145 0.000007 0.000001 4.061116 0.502537 0.846183 -0.118875 0.000004 -0.000005 3.248890 -0.001203 0.846180 -0.118938 0.000012 0.000004 2.639725 -0.000000 -0.000000 -0.000001 -0.104097 -0.006762 9.502954 -3.108294 2.490965 5.805398 -0.000011 0.000005 4.568724 0.499364 1.511703 -0.079337 -0.000018 -0.000004 3.655009 0.001460 1.514163 -0.079238 0.000005 0.000001 2.741242 -0.000000 0.000001 -0.000000 -0.086747 2.267443 8.921726 5.093910 3.000641 5.888869 0.000010 0.000001 4.061085 -0.993280 2.449668 0.150070 -0.000013 0.000001 3.654979 0.000969 2.449653 0.148605 -0.000009 -0.000002 2.741257 -0.000000 -0.000001 -0.000001 0.173511 4.467205 7.977045 13.645074 2.614596 5.952251 0.000006 0.000004 3.350411 -1.988493 2.711262 0.527670 -0.000004 -0.000003 2.842772 0.013558 2.710485 0.527740 -0.000017 0.000005 2.639726 -0.000000 0.000001 -0.000002 0.000007 0.000005 -0.000017 0.000001 -0.000001 0.000003 -0.000001 -0.000004 0.000002 0.000001 0.000003 -0.000001 -11.289943 -0.000009 -0.000009 -20.565303 3.846705 10.474271 -0.000003 -0.000002 -38.200325 -1.351553 0.401237 16.531703 0.000001 -0.000004 -39.900860 -23.241279 -3.645201 17.701337 -0.000004 -15.261640 0.000002 -0.673959 0.521135 -30.421772 0.000000 -7.370708 0.000001 -0.000002 -0.000001 -0.000000 0.000000 0.000000 0.000002 -0.000003 -0.000000 -0.000001 -0.000000 -0.000004 0.000003 -0.000000 0.000000 0.000001 11.315655 -0.000007 -0.000011 -8.763261 -8.195909 -3.064990 0.000002 -0.000010 -38.200321 0.946383 -0.474834 26.642483 0.000001 -0.000005 -39.900852 -6.707274 -2.212206 12.403245 0.000000 -15.261636 -0.000002 0.413357 -0.053900 -29.200285 0.000000 -7.540001 0.000001 0.000001 -0.000000 0.000000 -0.000000 -0.000000 -0.000001 0.000000 0.000001 -0.000002 0.000001 -0.000000 0.000000 -0.000002 -0.000000 -0.000000 
